<svg
   style="fill:currentColor"
   width="5.3017998mm"
   height="7.9375mm"
   viewBox="0 0 5.3017998 7.9375"
   version="1.1">
  <g
     transform="matrix(0.91552173,0,0,0.91552173,0.24228367,0.24144139)">
    <g
       transform="translate(-56.696281,-199.39653)">
      <path
         style="fill:currentColor;stroke-width:0;fill-opacity:1"
         d="m 59.327305,199.39653 c -1.453074,0 -2.631024,1.17795 -2.631024,2.63102 0,1.45308 2.631024,5.30648 2.631024,5.30648 0,0 2.631023,-3.8534 2.631023,-5.30648 0,-1.45307 -1.177949,-2.63102 -2.631023,-2.63102 z m 0,1.94 c 0.381642,0 0.691025,0.30938 0.69102,0.69102 -1.4e-5,0.38163 -0.309392,0.691 -0.69102,0.69099 -0.381616,-1e-5 -0.690973,-0.30937 -0.690987,-0.69099 -5e-6,-0.38162 0.309358,-0.691 0.690987,-0.69102 z" />
    </g>
    <path
       style="opacity:1;fill:#00a9ce;fill-opacity:1;stroke:none;stroke-width:2.16511416;stroke-miterlimit:4;stroke-dasharray:none;stroke-opacity:1"
       d="M 9.9433594,0 C 6.2312038,0 2.9992424,2.0383624 1.2910156,5.0527344 L 7.6523438,8.7167969 C 8.0928078,7.8967823 8.947358,7.3320834 9.9433594,7.3320312 c 1.4424266,0 2.6133006,1.1689093 2.6132816,2.6113282 -1.9e-5,0.5037176 -0.151387,0.9702096 -0.398438,1.3691406 l 6.349609,3.65625 c 0.827806,-1.965127 1.38086,-3.746062 1.38086,-5.0253906 C 19.888672,4.4514414 15.435292,0 9.9433594,0 Z"
       transform="scale(0.26458334)" />
    <g
       transform="translate(-56.696281,-199.39653)"
       style="fill:none;stroke:#000000;stroke-width:0.5291667;stroke-miterlimit:4;stroke-dasharray:none;stroke-opacity:1">
      <g>
        <path
           d="m 59.328125,199.13281 c -1.596066,0 -2.896484,1.29847 -2.896484,2.89453 0,0.44312 0.180712,0.96897 0.433593,1.54883 0.252882,0.57987 0.586081,1.20352 0.917969,1.78125 0.663776,1.15547 1.326172,2.125 1.326172,2.125 l 0.21875,0.32031 0.216797,-0.32031 c 0,0 0.664349,-0.96953 1.328125,-2.125 0.331888,-0.57773 0.663134,-1.20138 0.916015,-1.78125 0.252882,-0.57986 0.433594,-1.10571 0.433594,-1.54883 0,-1.59606 -1.298465,-2.89453 -2.894531,-2.89453 z m 0,0.52735 c 1.310082,0 2.365234,1.05711 2.365234,2.36718 0,0.28343 -0.148236,0.78461 -0.388671,1.33594 -0.240436,0.55133 -0.564758,1.16322 -0.890626,1.73047 -0.542711,0.94472 -0.91929,1.49387 -1.085937,1.74219 -0.1664,-0.24795 -0.542998,-0.79707 -1.085937,-1.74219 -0.325868,-0.56725 -0.652143,-1.17914 -0.892579,-1.73047 -0.240435,-0.55133 -0.388671,-1.05251 -0.388671,-1.33594 0,-1.31007 1.057105,-2.36718 2.367187,-2.36718 z m 0,1.41211 c -0.524617,2e-5 -0.957038,0.43046 -0.957031,0.95507 1.9e-5,0.52461 0.432428,0.95507 0.957031,0.95508 0.524623,2e-5 0.955059,-0.43046 0.955078,-0.95508 7e-6,-0.52463 -0.430445,-0.95507 -0.955078,-0.95507 z m 0,0.52929 c 0.238651,0 0.425784,0.18714 0.425781,0.42578 -9e-6,0.23864 -0.187148,0.42579 -0.425781,0.42578 -0.238629,0 -0.427726,-0.18714 -0.427734,-0.42578 -4e-6,-0.23862 0.189093,-0.42576 0.427734,-0.42578 z"
           style="color:#000000;font-style:normal;font-variant:normal;font-weight:normal;font-stretch:normal;font-size:medium;line-height:normal;font-family:sans-serif;font-variant-ligatures:normal;font-variant-position:normal;font-variant-caps:normal;font-variant-numeric:normal;font-variant-alternates:normal;font-feature-settings:normal;text-indent:0;text-align:start;text-decoration:none;text-decoration-line:none;text-decoration-style:solid;text-decoration-color:#000000;letter-spacing:normal;word-spacing:normal;text-transform:none;writing-mode:lr-tb;direction:ltr;text-orientation:mixed;dominant-baseline:auto;baseline-shift:baseline;text-anchor:start;white-space:normal;shape-padding:0;clip-rule:nonzero;display:inline;overflow:visible;visibility:visible;opacity:1;isolation:auto;mix-blend-mode:normal;color-interpolation:sRGB;color-interpolation-filters:linearRGB;solid-color:#000000;solid-opacity:1;vector-effect:none;fill:#000000;fill-opacity:1;fill-rule:nonzero;stroke:none;stroke-width:0.5291667;stroke-linecap:butt;stroke-linejoin:miter;stroke-miterlimit:4;stroke-dasharray:none;stroke-dashoffset:0;stroke-opacity:1;color-rendering:auto;image-rendering:auto;shape-rendering:auto;text-rendering:auto;enable-background:accumulate" />
      </g>
    </g>
  </g>
</svg>
